<svg width="65" height="46" viewBox="0 0 65 46" fill="none" xmlns="http://www.w3.org/2000/svg">
<g id="Vector">
<g id="Vector_2">
<path d="M6.48431 23.8249C4.71989 23.8249 3.28899 23.2132 2.19161 21.9897C1.11574 20.7663 0.57781 19.1243 0.57781 17.0638V12.2666C0.57781 10.1846 1.11574 8.53188 2.19161 7.30844C3.26747 6.085 4.69837 5.47328 6.48431 5.47328C7.94748 5.47328 9.10942 5.89183 9.97011 6.72892C10.8308 7.54454 11.2611 8.6714 11.2611 10.1095L10.3574 9.1758H11.2934L11.1643 4.95815V0H15.1988V23.5029H11.2611V20.1224H10.3574L11.2611 19.1887C11.2611 20.6268 10.8308 21.7643 9.97011 22.6014C9.10942 23.4171 7.94748 23.8249 6.48431 23.8249ZM7.90445 20.3477C8.93728 20.3477 9.73342 20.0472 10.2929 19.4463C10.8738 18.8238 11.1643 17.9652 11.1643 16.8706V12.4276C11.1643 11.3329 10.8738 10.4851 10.2929 9.8841C9.73342 9.26165 8.93728 8.95043 7.90445 8.95043C6.87162 8.95043 6.06472 9.25092 5.48375 9.85191C4.90279 10.4529 4.6123 11.3115 4.6123 12.4276V16.8706C4.6123 17.9867 4.90279 18.8453 5.48375 19.4463C6.06472 20.0472 6.87162 20.3477 7.90445 20.3477Z" fill="black"/>
<path d="M42.6108 23.5029C40.9109 23.5029 39.5769 23.0307 38.6086 22.0863C37.6618 21.1419 37.1884 19.8433 37.1884 18.1906V9.43336H32.3793V5.79524H37.1884V0.804894H41.2552V5.79524H48.0654V9.43336H41.2552V18.1906C41.2552 19.3067 41.8039 19.8648 42.9013 19.8648H47.7427V23.5029H42.6108Z" fill="black"/>
<path d="M38.424 45.9598C36.595 45.9598 35.1533 45.4769 34.099 44.511C33.0446 43.5452 32.5175 42.2466 32.5175 40.6153C32.5175 38.8768 33.0984 37.5353 34.2603 36.5909C35.4223 35.6465 37.0684 35.1743 39.1986 35.1743H43.6204V33.661C43.6204 32.8025 43.3406 32.1371 42.7812 31.6649C42.2218 31.1712 41.4579 30.9244 40.4896 30.9244C39.6074 30.9244 38.8758 31.1176 38.2948 31.5039C37.7139 31.8903 37.3696 32.4161 37.262 33.0815H33.3243C33.518 31.4073 34.2711 30.0766 35.5837 29.0892C36.8962 28.1019 38.5746 27.6082 40.6187 27.6082C42.792 27.6082 44.5026 28.1556 45.7506 29.2502C47.0201 30.3234 47.6549 31.783 47.6549 33.6288V45.6379H43.7495V42.5471H43.104L43.7495 41.6778C43.7495 42.9871 43.2653 44.0281 42.2971 44.8008C41.3288 45.5735 40.0377 45.9598 38.424 45.9598ZM39.7473 42.9334C40.8877 42.9334 41.8129 42.6437 42.523 42.0641C43.2546 41.4846 43.6204 40.7334 43.6204 39.8104V37.6533H39.2631C38.4455 37.6533 37.7892 37.8894 37.2943 38.3616C36.7994 38.8338 36.5519 39.4563 36.5519 40.229C36.5519 41.0661 36.8317 41.7315 37.3911 42.2251C37.9721 42.6973 38.7575 42.9334 39.7473 42.9334Z" fill="black"/>
<path d="M8.09809 45.9598C6.59188 45.9598 5.26857 45.6808 4.12815 45.1227C3.00925 44.5432 2.1378 43.7383 1.5138 42.7081C0.889801 41.6563 0.5778 40.4222 0.5778 39.0055V34.5625C0.5778 33.1245 0.889801 31.8903 1.5138 30.86C2.1378 29.8297 3.00925 29.0356 4.12815 28.4775C5.26857 27.898 6.59188 27.6082 8.09809 27.6082C10.3359 27.6082 12.1218 28.1878 13.4559 29.3468C14.79 30.4844 15.4893 32.0405 15.5538 34.0152H11.5193C11.4548 33.0923 11.1213 32.3839 10.5188 31.8903C9.93782 31.3751 9.13093 31.1176 8.09809 31.1176C7.02223 31.1176 6.1723 31.4181 5.5483 32.0191C4.92429 32.5986 4.61229 33.4357 4.61229 34.5303V39.0055C4.61229 40.1002 4.92429 40.948 5.5483 41.549C6.1723 42.15 7.02223 42.4505 8.09809 42.4505C9.13093 42.4505 9.93782 42.2037 10.5188 41.71C11.1213 41.1949 11.4548 40.4758 11.5193 39.5529H15.5538C15.4893 41.5275 14.79 43.0944 13.4559 44.2535C12.1218 45.391 10.3359 45.9598 8.09809 45.9598Z" fill="black"/>
<path fill-rule="evenodd" clip-rule="evenodd" d="M60.1945 42.2408L60.1954 42.2348L60.1969 42.2245C60.2381 41.9387 60.2587 41.6385 60.2587 41.3239L59.355 42.2576H60.192C60.1929 42.252 60.1937 42.2464 60.1945 42.2408ZM60.2587 32.2447C60.2587 31.9173 60.2065 31.5149 60.1619 31.2198L59.355 31.311L60.2587 32.2447ZM59.5108 20.4121H60.0779C60.1302 20.1369 60.1563 19.8471 60.1563 19.5428L59.5108 20.4121Z" fill="black"/>
<path fill-rule="evenodd" clip-rule="evenodd" d="M27.8272 20.4121H27.2601L27.9056 19.5428C27.9056 19.8471 27.8794 20.1369 27.8272 20.4121ZM21.7091 31.6729H20.6751C20.6329 31.9679 20.6118 32.2791 20.6118 32.6066L21.7091 31.6729Z" fill="black"/>
<path fill-rule="evenodd" clip-rule="evenodd" d="M18.4165 14.4559C17.2545 15.4003 16.6736 16.7418 16.6736 18.4804C16.6736 18.5104 16.6737 18.5402 16.6741 18.57V46H20.7086V34.9246C20.7086 33.8085 20.9883 32.95 21.5478 32.349C22.1287 31.748 22.9141 31.4475 23.9039 31.4475C24.9152 31.4475 25.7006 31.7373 26.26 32.3168C26.8195 32.8963 27.0992 33.7227 27.0992 34.7959V46H31.1337V34.3773C31.1337 32.4241 30.6065 30.868 29.5522 29.7089C28.5194 28.5499 27.1315 27.9704 25.3886 27.9704C23.9039 27.9704 22.7312 28.3782 21.8705 29.1938C21.2196 29.8265 20.8211 30.6528 20.6751 31.6729H21.7091L20.6118 32.6066C20.6118 32.2791 20.6329 31.9679 20.6751 31.6729H20.6118L20.7086 28.2923V23.6264C21.2794 23.7587 21.9032 23.8249 22.5801 23.8249C24.1939 23.8249 25.4849 23.4385 26.4532 22.6658C27.1964 22.0727 27.6544 21.3215 27.8272 20.4121H27.2601L27.9056 19.5428C27.9056 19.8471 27.8794 20.1369 27.8272 20.4121H27.9056V23.5029H31.811V11.4939C31.811 9.648 31.1762 8.18846 29.9067 7.11527C28.6587 6.02061 26.9481 5.47328 24.7748 5.47328C22.7307 5.47328 21.0523 5.96695 19.7398 6.95429C18.4272 7.94163 17.6741 9.27238 17.4805 10.9466H21.4181C21.5257 10.2812 21.87 9.75532 22.451 9.36897C23.0319 8.98262 23.7635 8.78945 24.6457 8.78945C25.614 8.78945 26.3779 9.03628 26.9373 9.52995C27.4968 10.0022 27.7765 10.6675 27.7765 11.5261V13.0393H23.3547C21.2245 13.0393 19.5784 13.5115 18.4165 14.4559ZM26.6791 19.9292C25.969 20.5087 25.0438 20.7985 23.9034 20.7985C22.9136 20.7985 22.1282 20.5624 21.5472 20.0902C20.9878 19.5965 20.7081 18.9311 20.7081 18.094C20.7081 17.3213 20.9555 16.6989 21.4504 16.2267C21.9453 15.7545 22.6016 15.5184 23.4192 15.5184H27.7765V17.6755C27.7765 18.5984 27.4107 19.3497 26.6791 19.9292Z" fill="black"/>
<path fill-rule="evenodd" clip-rule="evenodd" d="M50.5058 22.3761C51.5602 23.3419 53.0018 23.8249 54.8308 23.8249C56.4446 23.8249 57.7356 23.4385 58.7039 22.6658C59.4472 22.0727 59.9052 21.3215 60.0779 20.4121H59.5108L60.1563 19.5428C60.1563 19.8471 60.1302 20.1369 60.0779 20.4121H60.1563L60.1619 23.5029V31.2198C60.2065 31.5149 60.2587 31.9173 60.2587 32.2447L59.355 31.311L60.1619 31.2198C60.0105 30.2185 59.6324 29.4941 58.9676 28.8641C58.107 28.0271 56.945 27.6085 55.4818 27.6085C53.6959 27.6085 52.265 28.2202 51.1891 29.4437C50.1133 30.6671 49.5754 32.3198 49.5754 34.4018V39.199C49.5754 41.2595 50.1133 42.9015 51.1891 44.1249C52.2865 45.3484 53.7174 45.9601 55.4818 45.9601C56.945 45.9601 58.107 45.5523 58.9676 44.7367C59.6328 44.0898 60.0409 43.2634 60.192 42.2576H59.355L60.2587 41.3239C60.2587 41.6385 60.2381 41.9387 60.1969 42.2245L60.1954 42.2348L60.1945 42.2408C60.1937 42.2464 60.1929 42.252 60.192 42.2576H60.2587V45.6381H64.1964V23.3684V11.7701C64.1964 9.92424 63.4269 8.18846 62.1574 7.11527C60.9094 6.02061 59.1988 5.47328 57.0255 5.47328C54.9814 5.47328 53.3031 5.96695 51.9905 6.95429C50.6779 7.94163 49.9248 9.27238 49.7312 10.9466H53.6688C53.7764 10.2812 54.1207 9.75532 54.7017 9.36897C55.2826 8.98262 56.0142 8.78945 56.8964 8.78945C57.8647 8.78945 58.6286 9.03628 59.188 9.52995C59.7475 10.0022 60.0272 10.6675 60.0272 11.5261V13.0393H55.6054C53.4752 13.0393 51.8291 13.5115 50.6672 14.4559C49.5053 15.4003 48.9243 16.7418 48.9243 18.4804C48.9243 20.1116 49.4515 21.4102 50.5058 22.3761ZM58.9298 19.9292C58.2198 20.5087 57.2945 20.7985 56.1541 20.7985C55.1643 20.7985 54.3789 20.5624 53.798 20.0902C53.2385 19.5965 52.9588 18.9311 52.9588 18.094C52.9588 17.3213 53.2062 16.6989 53.7011 16.2267C54.196 15.7545 54.8523 15.5184 55.67 15.5184H60.0272V17.6755C60.0272 18.5984 59.6614 19.3497 58.9298 19.9292ZM59.2904 41.5815C58.731 42.1825 57.9348 42.483 56.902 42.483C55.8692 42.483 55.0623 42.1825 54.4813 41.5815C53.9003 40.9805 53.6098 40.1219 53.6098 39.0058V34.5628C53.6098 33.4467 53.9003 32.5881 54.4813 31.9871C55.0623 31.3862 55.8692 31.0857 56.902 31.0857C57.9348 31.0857 58.731 31.3969 59.2904 32.0193C59.8714 32.6203 60.1619 33.4681 60.1619 34.5628V39.0058C60.1619 40.1005 59.8714 40.959 59.2904 41.5815Z" fill="black"/>
<path d="M6.43739 23.8249C4.67297 23.8249 3.24207 23.2132 2.14469 21.9897C1.06883 20.7663 0.530894 19.1243 0.530894 17.0638V12.2666C0.530894 10.1846 1.06883 8.53188 2.14469 7.30844C3.22056 6.085 4.65146 5.47328 6.43739 5.47328C7.90057 5.47328 9.0625 5.89183 9.92319 6.72892C10.7839 7.54454 11.2142 8.6714 11.2142 10.1095L10.3105 9.1758H11.2465L11.1174 4.95815V0H15.1519V23.5029H11.2142V20.1224H10.3105L11.2142 19.1887C11.2142 20.6268 10.7839 21.7643 9.92319 22.6014C9.0625 23.4171 7.90057 23.8249 6.43739 23.8249ZM7.85753 20.3477C8.89036 20.3477 9.6865 20.0472 10.246 19.4463C10.8269 18.8238 11.1174 17.9652 11.1174 16.8706V12.4276C11.1174 11.3329 10.8269 10.4851 10.246 9.8841C9.6865 9.26165 8.89036 8.95043 7.85753 8.95043C6.8247 8.95043 6.0178 9.25092 5.43684 9.85191C4.85587 10.4529 4.56539 11.3115 4.56539 12.4276V16.8706C4.56539 17.9867 4.85587 18.8453 5.43684 19.4463C6.0178 20.0472 6.8247 20.3477 7.85753 20.3477Z" fill="black"/>
<path d="M8.05118 45.9598C6.54497 45.9598 5.22165 45.6808 4.08124 45.1227C2.96234 44.5432 2.09089 43.7383 1.46689 42.7081C0.842885 41.6563 0.530884 40.4222 0.530884 39.0055V34.5625C0.530884 33.1245 0.842885 31.8903 1.46689 30.86C2.09089 29.8297 2.96234 29.0356 4.08124 28.4775C5.22165 27.898 6.54497 27.6082 8.05118 27.6082C10.289 27.6082 12.0749 28.1878 13.409 29.3468C14.7431 30.4844 15.4424 32.0405 15.5069 34.0152H11.4724C11.4079 33.0923 11.0744 32.3839 10.4719 31.8903C9.89091 31.3751 9.08401 31.1176 8.05118 31.1176C6.97531 31.1176 6.12538 31.4181 5.50138 32.0191C4.87738 32.5986 4.56538 33.4357 4.56538 34.5303V39.0055C4.56538 40.1002 4.87738 40.948 5.50138 41.549C6.12538 42.15 6.97531 42.4505 8.05118 42.4505C9.08401 42.4505 9.89091 42.2037 10.4719 41.71C11.0744 41.1949 11.4079 40.4758 11.4724 39.5529H15.5069C15.4424 41.5275 14.7431 43.0944 13.409 44.2535C12.0749 45.391 10.289 45.9598 8.05118 45.9598Z" fill="black"/>
</g>
</g>
</svg>
